<svg width="199" height="36" viewBox="0 0 199 36" fill="none" xmlns="http://www.w3.org/2000/svg">
<path d="M0.109375 35V33.7793L0.304688 33.6328C1.63932 33.584 2.54264 33.4294 3.01465 33.1689C3.48665 32.9085 4.16211 32.168 5.04102 30.9473C6.3431 29.1243 9.0612 25.2181 13.1953 19.2285L19.7871 9.80469C21.7891 6.95638 22.9528 5.26367 23.2783 4.72656C23.4899 4.36849 23.5957 4.05111 23.5957 3.77441C23.5957 3.25358 23.2702 2.87923 22.6191 2.65137C21.9844 2.40723 20.1533 2.21191 17.126 2.06543L16.9307 1.89453V0.673828L17.126 0.50293C17.4189 0.50293 18.3548 0.535482 19.9336 0.600586C21.5124 0.66569 22.9365 0.698242 24.2061 0.698242C25.4919 0.698242 26.8835 0.66569 28.3809 0.600586L31.1396 0.50293L31.3105 0.673828C31.2617 1.3737 31.2292 2.26074 31.2129 3.33496L31.1396 7.3877V23.501C31.1396 24.8356 31.1559 26.4469 31.1885 28.335C31.221 30.223 31.2699 31.4193 31.335 31.9238C31.4001 32.4121 31.5303 32.762 31.7256 32.9736C31.9209 33.1689 32.3034 33.3154 32.873 33.4131C33.459 33.5107 34.4355 33.584 35.8027 33.6328L35.998 33.7793V35L35.8027 35.1953C35.6888 35.1953 34.6227 35.1628 32.6045 35.0977C30.6676 35.0326 29.3818 35 28.7471 35C28.4053 35 26.0941 35.0651 21.8135 35.1953L21.6182 35V33.7793L21.8135 33.6328C23.2132 33.584 24.2061 33.5107 24.792 33.4131C25.3779 33.3154 25.7604 33.1608 25.9395 32.9492C26.1185 32.7214 26.2324 32.3551 26.2812 31.8506C26.3464 31.3298 26.3952 30.1009 26.4277 28.1641C26.4603 26.2109 26.4766 24.6566 26.4766 23.501V3.65234H25.8174L17.1504 17.1533L10.4609 27.5781C8.75195 30.2474 7.85677 31.7122 7.77539 31.9727C7.69401 32.2168 7.65332 32.4121 7.65332 32.5586C7.65332 33.1934 8.14974 33.5189 9.14258 33.5352L10.9492 33.6328L11.1445 33.7793V35L10.9492 35.1953C9.30534 35.0651 7.70215 35 6.13965 35C4.28418 35 2.33919 35.0651 0.304688 35.1953L0.109375 35ZM63.5859 22.6953C63.5859 24.7461 63.2523 26.5934 62.585 28.2373C61.9339 29.8812 60.9818 31.2972 59.7285 32.4854C58.4915 33.6572 57.2057 34.4873 55.8711 34.9756C54.5527 35.4476 52.9984 35.6836 51.208 35.6836C47.2041 35.6836 44.1523 34.5361 42.0527 32.2412C39.9694 29.9463 38.9277 27.0817 38.9277 23.6475C38.9277 21.2874 39.4323 19.1878 40.4414 17.3486C41.4505 15.5094 42.9072 14.1016 44.8115 13.125C46.7321 12.1484 48.9782 11.6602 51.5498 11.6602C54.0563 11.6602 56.1966 12.1322 57.9707 13.0762C59.7448 14.0039 61.1201 15.3223 62.0967 17.0312C63.0895 18.724 63.5859 20.612 63.5859 22.6953ZM58.874 24.1357C58.874 20.8805 58.1986 18.2682 56.8477 16.2988C55.513 14.3294 53.5518 13.3447 50.9639 13.3447C48.7992 13.3447 47.0332 14.1097 45.666 15.6396C44.2988 17.1533 43.6152 19.4482 43.6152 22.5244C43.6152 25.682 44.2988 28.4082 45.666 30.7031C47.0495 32.9818 49.0352 34.1211 51.623 34.1211C53.8854 34.1211 55.6595 33.2178 56.9453 31.4111C58.2311 29.5882 58.874 27.1631 58.874 24.1357ZM67.1748 12.3926L67.3701 12.2217C69.0628 12.3519 70.7962 12.417 72.5703 12.417C76.6882 12.417 79.276 12.4007 80.334 12.3682C81.3919 12.3356 82.9788 12.238 85.0947 12.0752L85.29 12.2705C85.0296 14.0934 84.8424 15.9896 84.7285 17.959L84.5576 18.1543H83.7275L83.5566 17.959C83.3776 16.6406 83.2311 15.7861 83.1172 15.3955C83.0033 15.0049 82.8324 14.7038 82.6045 14.4922C82.3929 14.2806 82.1243 14.1423 81.7988 14.0771C81.4896 13.9958 80.8467 13.9551 79.8701 13.9551H75.2314L75.0361 14.126V25.918C75.0361 29.7428 75.1663 31.9482 75.4268 32.5342C75.6872 33.1201 76.7614 33.5433 78.6494 33.8037L78.8203 33.9746V35L78.6494 35.1953C76.3708 35.0651 74.4909 35 73.0098 35C71.4961 35 69.6162 35.0651 67.3701 35.1953L67.1748 35V33.9746L67.3701 33.8037C68.3467 33.6572 69.071 33.4945 69.543 33.3154C70.015 33.1364 70.3242 32.9329 70.4707 32.7051C70.6335 32.4609 70.7311 32.168 70.7637 31.8262C70.8125 31.4844 70.8532 30.6055 70.8857 29.1895C70.9346 27.7572 70.959 26.6667 70.959 25.918V21.499C70.959 17.6579 70.8288 15.4443 70.5684 14.8584C70.3242 14.2725 69.2581 13.8574 67.3701 13.6133L67.1748 13.418V12.3926ZM111.584 22.6953C111.584 24.7461 111.25 26.5934 110.583 28.2373C109.932 29.8812 108.98 31.2972 107.727 32.4854C106.49 33.6572 105.204 34.4873 103.869 34.9756C102.551 35.4476 100.996 35.6836 99.2061 35.6836C95.2021 35.6836 92.1504 34.5361 90.0508 32.2412C87.9674 29.9463 86.9258 27.0817 86.9258 23.6475C86.9258 21.2874 87.4303 19.1878 88.4395 17.3486C89.4486 15.5094 90.9053 14.1016 92.8096 13.125C94.7301 12.1484 96.9762 11.6602 99.5479 11.6602C102.054 11.6602 104.195 12.1322 105.969 13.0762C107.743 14.0039 109.118 15.3223 110.095 17.0312C111.088 18.724 111.584 20.612 111.584 22.6953ZM106.872 24.1357C106.872 20.8805 106.197 18.2682 104.846 16.2988C103.511 14.3294 101.55 13.3447 98.9619 13.3447C96.7972 13.3447 95.0312 14.1097 93.6641 15.6396C92.2969 17.1533 91.6133 19.4482 91.6133 22.5244C91.6133 25.682 92.2969 28.4082 93.6641 30.7031C95.0475 32.9818 97.0332 34.1211 99.6211 34.1211C101.883 34.1211 103.658 33.2178 104.943 31.4111C106.229 29.5882 106.872 27.1631 106.872 24.1357ZM114.172 12.3926L114.367 12.2217C117.541 12.3844 121.097 12.4658 125.036 12.4658C129.04 12.4658 132.596 12.3844 135.705 12.2217L135.876 12.3926C135.778 14.541 135.729 16.3558 135.729 17.8369L135.583 17.9834H134.606L134.46 17.8369C134.248 16.0791 134.077 15.0456 133.947 14.7363C133.817 14.4108 133.63 14.1992 133.386 14.1016C133.158 14.0039 132.702 13.9551 132.019 13.9551H127.062L126.965 20.2051V25.7715C126.965 26.9759 126.981 28.3838 127.014 29.9951C127.046 31.5902 127.144 32.5423 127.307 32.8516C127.469 33.1608 127.689 33.3724 127.966 33.4863C128.243 33.584 128.983 33.6898 130.188 33.8037L130.383 33.9746V35L130.188 35.1953C128.56 35.0651 126.843 35 125.036 35C123.148 35 121.431 35.0651 119.885 35.1953L119.689 35V33.9746L119.885 33.8037C121.105 33.6898 121.846 33.584 122.106 33.4863C122.383 33.3724 122.603 33.1608 122.766 32.8516C122.928 32.526 123.026 31.7367 123.059 30.4834C123.091 29.2139 123.107 27.6432 123.107 25.7715V20.2783C123.059 18.1624 123.018 16.0547 122.985 13.9551H118.029C117.329 13.9551 116.857 14.012 116.613 14.126C116.385 14.2236 116.206 14.4515 116.076 14.8096C115.962 15.1514 115.799 16.1605 115.588 17.8369L115.441 17.9834H114.489L114.318 17.8369C114.318 17.1859 114.27 15.3711 114.172 12.3926ZM138.757 35V33.9746L138.952 33.8037C139.929 33.6572 140.653 33.4945 141.125 33.3154C141.597 33.1364 141.906 32.9329 142.053 32.7051C142.215 32.4609 142.313 32.168 142.346 31.8262C142.395 31.4844 142.435 30.6055 142.468 29.1895C142.517 27.7572 142.541 26.6667 142.541 25.918V21.499C142.541 17.6579 142.411 15.4443 142.15 14.8584C141.906 14.2725 140.84 13.8574 138.952 13.6133L138.757 13.418V12.3926L138.952 12.2217C141.215 12.3519 143.094 12.417 144.592 12.417C146.04 12.417 147.92 12.3519 150.231 12.2217L150.402 12.3926V13.418L150.231 13.6133C149.19 13.7598 148.457 13.9225 148.034 14.1016C147.627 14.2643 147.342 14.4434 147.18 14.6387C147.017 14.8177 146.911 15.0456 146.862 15.3223C146.813 15.599 146.757 16.486 146.691 17.9834C146.643 19.4645 146.618 20.6364 146.618 21.499V31.582L147.009 31.7285C148.555 29.4173 150.549 26.1865 152.99 22.0361C155.432 17.8695 157.295 14.598 158.581 12.2217C160.111 12.3519 161.389 12.417 162.414 12.417C163.472 12.417 164.774 12.3519 166.32 12.2217L166.516 12.3926V13.418L166.32 13.6133C164.416 13.8574 163.342 14.2887 163.098 14.9072C162.854 15.5094 162.731 17.7067 162.731 21.499V25.918C162.731 29.7428 162.854 31.9482 163.098 32.5342C163.358 33.1201 164.432 33.5433 166.32 33.8037L166.516 33.9746V35L166.32 35.1953C164.058 35.0651 162.178 35 160.681 35C159.232 35 157.352 35.0651 155.041 35.1953L154.846 35V33.9746L155.041 33.8037C156.945 33.5433 158.02 33.112 158.264 32.5098C158.524 31.9076 158.654 29.7103 158.654 25.918V15.9814L158.264 15.835C157.076 17.5928 155.171 20.734 152.551 25.2588C149.947 29.7835 148.116 33.0957 147.058 35.1953C145.528 35.0651 144.274 35 143.298 35C142.24 35 140.791 35.0651 138.952 35.1953L138.757 35ZM170.349 35V33.9746L170.544 33.8037C171.521 33.6572 172.245 33.4945 172.717 33.3154C173.189 33.1364 173.498 32.9329 173.645 32.7051C173.807 32.4609 173.905 32.168 173.938 31.8262C173.986 31.4844 174.027 30.6055 174.06 29.1895C174.108 27.7572 174.133 26.6667 174.133 25.918V21.499C174.133 17.6579 174.003 15.4443 173.742 14.8584C173.498 14.2725 172.432 13.8574 170.544 13.6133L170.349 13.418V12.3926L170.544 12.2217C175.443 12.3519 180.033 12.417 184.313 12.417C188.317 12.417 192.915 12.3519 198.107 12.2217L198.278 12.3926V13.418L198.107 13.6133C197.066 13.7598 196.333 13.9225 195.91 14.1016C195.487 14.2643 195.194 14.4434 195.031 14.6387C194.885 14.8177 194.787 15.0456 194.738 15.3223C194.689 15.599 194.632 16.4779 194.567 17.959C194.519 19.4238 194.494 20.6038 194.494 21.499V25.918C194.494 29.7591 194.624 31.9727 194.885 32.5586C195.145 33.1283 196.219 33.5433 198.107 33.8037L198.278 33.9746V35L198.107 35.1953C195.829 35.0651 193.941 35 192.443 35C190.995 35 189.115 35.0651 186.804 35.1953L186.633 35V33.9746L186.804 33.8037C188.724 33.5433 189.807 33.112 190.051 32.5098C190.295 31.9076 190.417 29.7103 190.417 25.918V14.126L190.222 13.9551H178.405L178.21 14.126V25.918C178.21 29.7428 178.34 31.9482 178.601 32.5342C178.861 33.1201 179.935 33.5433 181.823 33.8037L181.994 33.9746V35L181.823 35.1953C179.545 35.0651 177.665 35 176.184 35C174.67 35 172.79 35.0651 170.544 35.1953L170.349 35Z" fill="white"/>
</svg>
